<svg width="20" height="20" viewBox="0 0 20 20" fill="none" xmlns="http://www.w3.org/2000/svg">
<path fill-rule="evenodd" clip-rule="evenodd" d="M7.74 8.32c-.36.24-.53.36-.64.53a1 1 0 00-.16.48c-.01.2.05.4.19.8l.5 1.53c.14.39.2.59.32.73a1 1 0 
00.4.3c.18.06.39.06.8.06h1.7c.41 0 .62 0 .8-.07a1 1 0 00.4-.29c.12-.14.18-.34.31-.73l.51-1.52c.14-.41.2-.61.2-.8a1 1 0 00-.17-.5c-.1-.16-.28-.28-.64-.52l-1.35-.94c-.33-.23-.5-.34-.67-.38a1 1 0 
00-.48 0c-.18.04-.34.15-.67.38l-1.35.94zm.79 1.27l.55 1.66h1.84l.55-1.66L10 8.57 8.53 9.6z" fill="rgb(81, 129, 184)"></path>
<path fill-rule="evenodd" clip-rule="evenodd" d="M10 1.5a8.5 8.5 0 100 17 8.5 8.5 0 000-17zM8.36 3.2a7.02 7.02 0 013.28 0l-1.48 1.28a.25.25 0 01-.33 0L8.36 3.2zm-1.6.6c-.69.35-1.31.83-1.84 1.39l1.1 
2.36c.4.83.07 1.83-.74 2.27l-2.2 1.22c.13.93.45 1.8.92 2.56l2.22-.55a1.75 1.75 0 012.16 1.48l.3 2.35a7.03 7.03 0 002.64 0l.3-2.35a1.75 1.75 0 012.16-1.48l2.22.55c.47-.77.79-1.63.92-2.56l-2.2-1.22a1.75 
1.75 0 01-.74-2.27l1.1-2.36a7.02 7.02 0 00-1.85-1.4l-2.09 1.82c-.66.58-1.64.58-2.3 0L6.76 3.79zm9.34 2.76l-.77 1.63a.25.25 0 00.11.32l1.53.84c-.1-1-.4-1.95-.87-2.8zM15 14.9l-1.59-.4a.25.25 0 
00-.3.21l-.21 1.66c.79-.36 1.5-.86 2.1-1.47zm-7.9 1.47l-.2-1.66a.25.25 0 00-.31-.2l-1.6.39c.61.61 1.32 1.11 2.11 1.47zM3.03 9.35l1.53-.84c.12-.06.16-.2.1-.32L3.9 6.56a6.96 6.96 0 00-.87 2.8z" 
fill="rgb(81, 129, 184)"></path></svg>